PathFileType	4	(X/Y/Z)	E:\3-PhD\Data\MocapData\ElaboratedData\012\pre\dynamicElaborations\Run_baselineB1\Run_baselineB1.trc
DataRate	CameraRate	NumFrames	NumMarkers	Units	OrigDataRate	OrigDataStartFrame	OrigNumFrames
200	200	4	56	mm	200	672	93
Frame#	Time	FHD			LBHD			RBHD			C7			T10			CLAV			LSHO			LUUPA			LMUPA			LDUPA			LLEP			LMEP			LRAD			LUL			LRFIN			RSHO			RUPA1			RMUPA			RDUPA			RLEP			RMEP			RRAD			RUL			RUFIN			LASI			RASI			USACR			LSACR			RSACR			LTHI1			LTHI2			LTHI3			LTHI4			LLFC			LTIB1			LTIB2			LTIB3			LTIB4			LHEE			LMT1			LMT5			LMT2			RTHI			RTHI2			RTHI3			RTHI4			RLFC			RTIB1			RTIB2			RTIB3			RTIB4			RLMAL			RHEE			RMT1			RMT2			RMT5		
		X1	Y1	Z1	X2	Y2	Z2	X3	Y3	Z3	X4	Y4	Z4	X5	Y5	Z5	X6	Y6	Z6	X7	Y7	Z7	X8	Y8	Z8	X9	Y9	Z9	X10	Y10	Z10	X11	Y11	Z11	X12	Y12	Z12	X13	Y13	Z13	X14	Y14	Z14	X15	Y15	Z15	X16	Y16	Z16	X17	Y17	Z17	X18	Y18	Z18	X19	Y19	Z19	X20	Y20	Z20	X21	Y21	Z21	X22	Y22	Z22	X23	Y23	Z23	X24	Y24	Z24	X25	Y25	Z25	X26	Y26	Z26	X27	Y27	Z27	X28	Y28	Z28	X29	Y29	Z29	X30	Y30	Z30	X31	Y31	Z31	X32	Y32	Z32	X33	Y33	Z33	X34	Y34	Z34	X35	Y35	Z35	X36	Y36	Z36	X37	Y37	Z37	X38	Y38	Z38	X39	Y39	Z39	X40	Y40	Z40	X41	Y41	Z41	X42	Y42	Z42	X43	Y43	Z43	X44	Y44	Z44	X45	Y45	Z45	X46	Y46	Z46	X47	Y47	Z47	X48	Y48	Z48	X49	Y49	Z49	X50	Y50	Z50	X51	Y51	Z51	X52	Y52	Z52	X53	Y53	Z53	X54	Y54	Z54	X55	Y55	Z55	X56	Y56	Z56	
672	3.355000	-2103.584575	1734.928456	445.270382	-2264.709797	1705.753446	353.935590	-2240.238785	1698.935581	504.407289	-2304.677027	1546.623266	430.005892	-2472.422349	1242.237822	359.813056	-2184.578702	1427.005492	408.594045	-2193.233471	1561.560299	279.912149	-2330.976408	1491.995374	111.727922	-2314.542684	1452.164434	84.549899	-2373.186166	1457.994426	67.895913	-2415.975417	1399.113003	8.739439	-2463.137079	1375.303481	77.518553	-2432.171254	1122.644526	-47.613806	-2448.875890	1158.187344	-115.164811	-2450.405275	1045.278982	-86.979353	-2197.604489	1481.746944	574.570511	-2224.089294	1245.801395	622.120317	-2183.256069	1235.398658	596.522455	-2206.382531	1181.346288	600.455936	-2183.365527	1115.968597	574.445625	-2225.259223	1116.091127	493.938592	-1998.049855	1252.124154	408.260846	-1951.723956	1190.221360	418.798685	-1924.741650	1289.857578	381.277906	-2372.845388	983.386239	246.690862	-2445.552310	978.009329	470.164123	-2536.981876	1123.318979	319.479568	-2549.666352	1098.441174	285.927734	-2563.359364	1098.652454	341.123975	-2343.896226	785.609357	173.572659	-2268.713627	752.552615	201.358389	-2242.696534	780.894143	231.227889	-2256.947044	695.044214	207.851677	-2198.166153	565.986139	253.355073	-2339.939475	455.462457	301.175635	-2374.569025	462.163948	223.507623	-2373.580678	432.342023	258.332343	-2454.254189	410.896416	272.526245	-2662.807224	431.892461	245.915196	-2587.622786	235.106657	258.654514	-2573.991219	270.266256	161.592400	-2557.590969	236.060806	210.071673	-2621.606902	705.978375	481.994532	-2596.950490	643.935136	496.176140	-2565.449868	635.789356	498.900920	-2638.414824	574.085333	469.709536	-2667.706210	455.159217	460.104102	-2700.788959	326.817397	416.447438	-2806.366156	314.316877	434.019942	-2775.930030	280.984500	424.055803	-2792.346814	238.583664	388.731367	-2948.438556	146.682279	361.126579	-3002.370313	117.296899	295.817172	-2790.336804	62.961927	341.352412	-2804.970414	59.716537	382.444845	-2861.209861	48.083796	420.959005	
673	3.360000	-2073.835524	1736.886279	442.339131	-2234.969354	1707.824518	351.040248	-2210.320569	1700.473553	501.576770	-2274.428088	1547.977289	428.353437	-2441.570452	1242.395796	363.140860	-2153.910282	1429.417472	404.769267	-2164.599815	1563.915288	277.313900	-2305.161588	1498.888358	111.619554	-2289.303263	1459.969751	82.405399	-2348.463777	1466.530676	67.478671	-2392.368052	1409.310183	7.496587	-2438.626627	1384.650620	76.256327	-2410.243197	1134.350191	-55.665044	-2429.368174	1171.621192	-121.742885	-2429.598308	1057.921559	-96.188019	-2164.000666	1485.406759	570.152258	-2185.863380	1249.682487	620.224290	-2145.222684	1239.797760	594.088909	-2167.529104	1185.331677	598.866825	-2143.897924	1120.330900	573.062176	-2187.397825	1118.740101	493.922301	-1965.741945	1263.422377	404.594066	-1917.422011	1202.994132	413.883406	-1893.942944	1303.805932	376.905980	-2341.535516	986.384567	245.606296	-2412.678083	975.783641	469.390252	-2505.744835	1123.258957	322.198767	-2518.943614	1098.901160	288.332158	-2531.882689	1098.369623	343.733747	-2308.055064	793.512978	174.678495	-2231.975818	763.347758	203.491019	-2207.216410	792.900308	233.022871	-2218.254284	706.202038	210.331085	-2153.941056	579.570930	256.009711	-2289.341521	459.785348	302.124287	-2322.096747	463.140580	223.695130	-2320.112250	433.828799	259.067525	-2399.810904	407.535994	271.532664	-2608.898076	413.464779	240.723404	-2519.187728	223.190771	255.789877	-2507.193471	258.599637	158.868321	-2489.222732	225.892443	207.757609	-2598.864216	709.086643	480.929617	-2577.781907	645.966183	493.181663	-2546.373636	636.481114	496.035847	-2622.270389	578.374331	467.973545	-2657.480776	460.669479	457.763561	-2692.811786	332.481219	415.809752	-2798.416386	321.364469	434.433537	-2768.324627	287.614701	424.634201	-2785.516960	244.828775	390.128243	-2943.197176	154.191350	364.793030	-2997.273378	127.659892	299.526752	-2789.719946	62.011267	342.274089	-2804.088536	58.480391	383.284140	-2860.457831	48.827561	421.961818	
674	3.365000	-2043.987230	1739.000052	439.208054	-2205.096021	1710.147014	347.900471	-2180.361826	1702.331898	498.498563	-2244.125328	1549.540321	426.545584	-2410.554254	1242.602437	366.694634	-2123.265394	1432.115282	400.879771	-2135.848691	1566.324208	274.580326	-2278.667004	1505.102758	111.233446	-2263.521498	1466.862705	80.549692	-2323.030241	1474.129352	67.038438	-2368.131678	1418.550671	6.605485	-2413.444892	1393.221323	75.488518	-2387.391841	1145.122341	-62.982788	-2408.806253	1184.006771	-127.605168	-2407.864554	1069.538424	-104.649713	-2130.683330	1489.038130	565.755694	-2148.551481	1253.586297	618.490645	-2108.014485	1244.032321	592.041221	-2129.753700	1189.294564	597.581801	-2105.677236	1124.539037	572.100232	-2150.712502	1121.226422	494.389123	-1934.114297	1273.009593	401.203901	-1884.132566	1213.921533	409.482986	-1863.692600	1315.603356	372.829327	-2309.908567	989.940124	244.575452	-2379.272083	974.090589	468.496994	-2474.254061	1123.330787	325.196326	-2487.993959	1099.441430	291.094734	-2500.171736	1098.216935	346.673713	-2272.958500	801.174017	175.646814	-2196.169205	773.586401	205.241192	-2172.494498	804.210856	234.355882	-2180.738942	716.800872	212.394611	-2111.325844	592.688587	258.007119	-2239.311106	463.927932	302.863188	-2270.097584	463.818481	223.739193	-2267.096612	435.181203	259.724830	-2345.323597	404.012119	270.745732	-2553.978390	394.188710	236.046471	-2450.243592	211.771791	253.806767	-2439.796020	247.066966	157.095772	-2420.223924	216.205631	206.455330	-2575.066764	712.749550	480.023720	-2557.288603	648.719557	490.326991	-2526.064068	637.914789	493.017823	-2604.705791	583.529751	466.405055	-2645.805403	467.384224	455.333591	-2683.407158	339.288253	415.067316	-2789.024141	329.463839	434.823280	-2759.220180	295.325125	425.187137	-2777.212577	252.134955	391.571220	-2936.356051	162.763356	368.618467	-2990.339986	139.508304	303.332508	-2788.719412	61.170696	343.203176	-2802.857883	57.435623	384.108208	-2859.259928	50.244257	422.968934	
675	3.370000	-2014.056084	1741.229841	435.911675	-2175.102948	1712.650085	344.549246	-2150.375410	1704.464336	495.204878	-2213.782226	1551.263622	424.603185	-2379.387407	1242.845287	370.368854	-2092.641075	1435.032112	396.968281	-2107.000959	1568.740777	271.727661	-2251.603699	1510.601359	110.497142	-2237.263952	1472.789490	78.875019	-2296.986808	1480.728210	66.488455	-2343.339663	1426.726734	5.976708	-2387.608025	1400.891299	75.146588	-2363.619651	1154.793693	-69.566887	-2387.162646	1195.144273	-132.788504	-2385.147701	1079.948723	-112.344784	-2097.650437	1492.587836	561.420508	-2112.144494	1257.447093	616.933507	-2071.648217	1248.044655	590.352776	-2093.052478	1193.166706	596.576972	-2068.723501	1128.518446	571.525523	-2115.142584	1123.596554	495.129839	-1903.025412	1280.786403	398.003707	-1851.713551	1222.856121	405.524682	-1833.792553	1325.114965	368.939823	-2278.026230	993.917238	243.675408	-2345.465098	972.969121	467.543291	-2442.537754	1123.601576	328.401790	-2456.839375	1100.102285	294.161069	-2468.263316	1098.262889	349.895393	-2238.621369	808.412568	176.457190	-2161.255216	783.055976	206.570289	-2138.456257	814.615227	235.202112	-2144.360790	726.619229	213.989375	-2070.325132	605.050436	259.309041	-2189.926282	467.729882	303.320029	-2218.666716	464.187905	223.573316	-2214.654557	436.355809	260.204902	-2290.901266	400.297937	270.072111	-2498.085648	374.235540	231.935371	-2380.979747	201.077008	252.753719	-2371.962429	235.806765	156.271778	-2350.806598	207.162922	206.157993	-2550.158137	716.854752	479.293617	-2535.366613	652.069961	487.675301	-2504.410650	639.993606	489.904323	-2585.617199	589.366365	464.942341	-2632.406463	475.107332	452.878393	-2672.341201	347.068423	414.220230	-2777.956220	338.492933	435.145221	-2748.408221	303.972948	425.662229	-2767.223508	260.385458	392.977916	-2927.697742	172.395540	372.398354	-2981.316445	152.822508	307.013848	-2787.208988	60.632217	344.060197	-2801.169459	56.812423	384.842679	-2857.472546	52.580727	423.875258	
